HIERARCHY
ROOT Hips
{
  OFFSET 51.9024 96.0937 8.4514
  CHANNELS 6 Xposition Yposition Zposition Zrotation Xrotation Yrotation
  JOINT spine
  {
    OFFSET 0 8.13249 0.467659
    CHANNELS 3 Zrotation Xrotation Yrotation
    JOINT spine1
    {
      OFFSET 0 10.3498 0
      CHANNELS 3 Zrotation Xrotation Yrotation
      JOINT spine2
      {
        OFFSET 0 9.91699 0
        CHANNELS 3 Zrotation Xrotation Yrotation
        JOINT Neck
        {
          OFFSET 0 25.461 1.2139
          CHANNELS 3 Zrotation Xrotation Yrotation
          JOINT Head
          {
            OFFSET 0 7.69245 0
            CHANNELS 3 Zrotation Xrotation Yrotation
            End Site
            {
              OFFSET 0 18.62 -6.14063
            }
          }
        }
        JOINT RightShoulder
        {
          OFFSET -4.17575 10.7096 -0.581445
          CHANNELS 3 Zrotation Xrotation Yrotation
          JOINT RightArm
          {
            OFFSET 0 14.0466 0
            CHANNELS 3 Zrotation Xrotation Yrotation
            JOINT RightArmRoll
            {
              OFFSET 0 7.09098 0
              CHANNELS 3 Zrotation Xrotation Yrotation
              JOINT RightForeArm
              {
                OFFSET 0 20.6535 0
                CHANNELS 3 Zrotation Xrotation Yrotation
                JOINT RightForeArmRoll
                {
                  OFFSET 0 7.95718 0
                  CHANNELS 3 Zrotation Xrotation Yrotation
                  JOINT RightHand
                  {
                    OFFSET 0 15.9683 0
                    CHANNELS 3 Zrotation Xrotation Yrotation
                    End Site
                    {
                      OFFSET 0 0 0
                    }
                  }
                }
              }
            }
          }
        }
        JOINT LeftShoulder
        {
          OFFSET 4.17575 10.7096 -0.581445
          CHANNELS 3 Zrotation Xrotation Yrotation
          JOINT LeftArm
          {
            OFFSET 0 14.0466 0
            CHANNELS 3 Zrotation Xrotation Yrotation
            JOINT LeftArmRoll
            {
              OFFSET 0 7.09098 0
              CHANNELS 3 Zrotation Xrotation Yrotation
              JOINT LeftForeArm
              {
                OFFSET 0 20.6535 0
                CHANNELS 3 Zrotation Xrotation Yrotation
                JOINT LeftForeArmRoll
                {
                  OFFSET 0 7.95718 0
                  CHANNELS 3 Zrotation Xrotation Yrotation
                  JOINT LeftHand
                  {
                    OFFSET 0 15.9683 0
                    CHANNELS 3 Zrotation Xrotation Yrotation
                    End Site
                    {
                      OFFSET 0 0 0
                    }
                  }
                }
              }
            }
          }
        }
      }
    }
  }
  JOINT RightUpLeg
  {
    OFFSET -7.20834 -1.32182 -1.10884
    CHANNELS 3 Zrotation Xrotation Yrotation
    JOINT RightUpLegRoll
    {
      OFFSET 0 18.7238 0
      CHANNELS 3 Zrotation Xrotation Yrotation
      JOINT RightLeg
      {
        OFFSET 0 -23.1866 0
        CHANNELS 3 Zrotation Xrotation Yrotation
        JOINT RightLegRoll
        {
          OFFSET 0 23.2624 0
          CHANNELS 3 Zrotation Xrotation Yrotation
          JOINT RightFoot
          {
            OFFSET 0 19.3621 0
            CHANNELS 3 Zrotation Xrotation Yrotation
            JOINT RightToeBase
            {
              OFFSET 0 16.1857 0
              CHANNELS 3 Zrotation Xrotation Yrotation
              End Site
              {
                OFFSET 0.00686052 7.83863 -0.903521
              }
            }
          }
        }
      }
    }
  }
  JOINT LeftUpLeg
  {
    OFFSET 7.20834 -1.32182 -1.10884
    CHANNELS 3 Zrotation Xrotation Yrotation
    JOINT LeftUpLegRoll
    {
      OFFSET 0 18.7239 0
      CHANNELS 3 Zrotation Xrotation Yrotation
      JOINT LeftLeg
      {
        OFFSET 0 23.1865 0
        CHANNELS 3 Zrotation Xrotation Yrotation
        JOINT LeftLegRoll
        {
          OFFSET 0 23.4775 0
          CHANNELS 3 Zrotation Xrotation Yrotation
          JOINT LeftFoot
          {
            OFFSET 0 19.147 0
            CHANNELS 3 Zrotation Xrotation Yrotation
            JOINT LeftToeBase
            {
              OFFSET 0 16.1857 0
              CHANNELS 3 Zrotation Xrotation Yrotation
              End Site
              {
                OFFSET -0.0307459 7.83863 -0.903522
              }
            }
          }
        }
      }
    }
  }
}
MOTION
Frames: 10
Frame Time: 0.00208333
53.0226 96.1129 10.2364 -1.08029 -3.08643 0.595669 0.442703 -1.20162 0.0563445 0.882052 1.60037 0.0699374 0.882034 3.24534 0.0553334 -0.525618 13.1929 -8.64363 2.2099 -0.145068 -8.62424 60.2611 -10.3226 -6.4238 109.399 15.5668 21.7598 1.00957e-006 -2.46307e-007 -4.762e-006 6.51143 3.78865 -0.913884 -7.04043e-006 2.77283e-006 -3.00257 8.02933 -4.95146 0.697668 -61.9731 -6.40994 4.12158 -109.293 16.49 -8.0733 -1.13028e-006 -2.59208e-007 5.97952e-006 -9.25631 0.069558 0.976642 8.40987e-007 -4.49122e-007 3.02102 -8.02901 -4.95146 -0.697668 172.96 0.729249 3.88966 -180 7.0156e-015 178.98 178.248 9.38171 179.725 4.21872e-006 1.25001e-006 0.018549 -17.4206 68.324 19.7846 8.13658 25.2339 -3.48611 -172.145 0.216 -2.76373 4.54188e-006 -4.6773e-006 -0.944974 -1.70622 -12.7357 0.347219 2.22653e-006 4.09114e-006 -0.195679 20.8007 72.225 -23.6226 -8.13664 25.2348 3.48486 
53.0189 96.1054 10.2215 -1.08453 -3.08882 0.596257 0.443949 -1.20317 0.0572174 0.884839 1.59799 0.071153 0.8848 3.24296 0.0564932 -0.534554 13.1919 -8.64973 2.22575 -0.138523 -8.63137 60.2453 -10.33 -6.42834 109.416 15.5627 21.7613 1.00957e-006 -2.46307e-007 -4.762e-006 6.50825 3.79393 -0.914778 -7.04043e-006 2.77283e-006 -3.00257 8.02933 -4.95146 0.697668 -61.9898 -6.39947 4.11625 -109.272 16.4912 -8.07969 -1.13028e-006 -2.59208e-007 5.97952e-006 -9.25516 0.0695583 0.977418 8.40987e-007 -4.49122e-007 3.02102 -8.02901 -4.95146 -0.697668 172.968 0.726079 3.88537 -180 7.0156e-015 178.98 178.249 9.38387 179.725 4.21872e-006 1.25001e-006 0.018549 -17.4219 68.3281 19.7871 8.13658 25.2339 -3.48611 -172.138 0.21723 -2.76745 4.54188e-006 -4.6773e-006 -0.944974 -1.70513 -12.7443 0.347213 2.22653e-006 4.09114e-006 -0.195636 20.8025 72.2291 -23.6279 -8.13664 25.2348 3.48486 
53.0114 96.1165 10.2288 -1.08892 -3.09119 0.596874 0.445268 -1.20476 0.0581297 0.887783 1.59561 0.0724246 0.887723 3.24057 0.0577062 -0.543749 13.1912 -8.65588 2.2418 -0.131885 -8.63861 60.2292 -10.3375 -6.43294 109.432 15.5581 21.7619 1.00957e-006 -2.46307e-007 -4.762e-006 6.50574 3.79933 -0.915752 -7.04043e-006 2.77283e-006 -3.00257 8.02933 -4.95146 0.697668 -62.007 -6.38863 4.11071 -109.252 16.4923 -8.08622 -1.13028e-006 -2.59208e-007 5.97952e-006 -9.25401 0.0695585 0.978229 8.40987e-007 -4.49122e-007 3.02102 -8.02901 -4.95146 -0.697668 172.976 0.722941 3.88089 -180 7.0156e-015 178.98 178.25 9.38611 179.724 4.21872e-006 1.25001e-006 0.018549 -17.4231 68.3323 19.7897 8.13658 25.2339 -3.48611 -172.131 0.218584 -2.77128 4.54188e-006 -4.6773e-006 -0.944974 -1.70404 -12.753 0.347204 2.22653e-006 4.09114e-006 -0.195572 20.8041 72.2333 -23.6333 -8.13664 25.2348 3.48486 
53.0067 96.1023 10.2413 -1.0934 -3.09356 0.597511 0.446638 -1.20636 0.0590696 0.890837 1.59322 0.0737356 0.890754 3.23817 0.0589564 -0.553126 13.1905 -8.66206 2.258 -0.125182 -8.64592 60.2129 -10.3451 -6.43759 109.449 15.5532 21.762 1.00957e-006 -2.46307e-007 -4.762e-006 6.50371 3.8048 -0.916782 -7.04043e-006 2.77283e-006 -3.00257 8.02933 -4.95146 0.697668 -62.0245 -6.37753 4.10504 -109.231 16.4934 -8.09283 -1.13028e-006 -2.59208e-007 5.97952e-006 -9.25286 0.0695587 0.979066 8.40987e-007 -4.49122e-007 3.02102 -8.02901 -4.95146 -0.697668 172.984 0.719826 3.87627 -180 7.0156e-015 178.98 178.251 9.38844 179.724 4.21872e-006 1.25001e-006 0.018549 -17.4244 68.3366 19.7923 8.13658 25.2339 -3.48611 -172.124 0.220025 -2.77519 4.54188e-006 -4.6773e-006 -0.944974 -1.70293 -12.7619 0.347192 2.22653e-006 4.09114e-006 -0.195494 20.8056 72.2375 -23.6387 -8.13664 25.2348 3.48486 
53.0104 96.1125 10.2399 -1.09795 -3.09593 0.598158 0.448037 -1.20798 0.0600252 0.893953 1.59082 0.075069 0.893848 3.23578 0.0602279 -0.562607 13.1899 -8.66827 2.27428 -0.118441 -8.65326 60.1964 -10.3527 -6.44226 109.465 15.5481 21.7618 1.00957e-006 -2.46307e-007 -4.762e-006 6.50194 3.81032 -0.917843 -7.04043e-006 2.77283e-006 -3.00257 8.02933 -4.95146 0.697668 -62.0421 -6.36628 4.09929 -109.21 16.4944 -8.09949 -1.13028e-006 -2.59208e-007 5.97952e-006 -9.25172 0.0695589 0.979917 8.40987e-007 -4.49122e-007 3.02102 -8.02901 -4.95146 -0.697668 172.993 0.716723 3.87158 -180 7.0156e-015 178.98 178.252 9.39078 179.724 4.21872e-006 1.25001e-006 0.018549 -17.4257 68.3409 19.7949 8.13658 25.2339 -3.48611 -172.116 0.221516 -2.77914 4.54188e-006 -4.6773e-006 -0.944974 -1.70183 -12.7708 0.347178 2.22653e-006 4.09114e-006 -0.195407 20.8072 72.2417 -23.6442 -8.13664 25.2348 3.48486 
53.0073 96.106 10.2425 -1.10251 -3.0983 0.598809 0.449444 -1.2096 0.0609849 0.897086 1.58842 0.0764081 0.896958 3.23338 0.0615048 -0.572114 13.1894 -8.67447 2.29059 -0.111691 -8.66062 60.1799 -10.3603 -6.44694 109.482 15.5429 21.7614 1.00957e-006 -2.46307e-007 -4.762e-006 6.50024 3.81584 -0.918912 -7.04043e-006 2.77283e-006 -3.00257 8.02933 -4.95146 0.697668 -62.0597 -6.35499 4.09351 -109.189 16.4954 -8.10617 -1.13028e-006 -2.59208e-007 5.97952e-006 -9.25057 0.0695592 0.980772 8.40987e-007 -4.49122e-007 3.02102 -8.02901 -4.95146 -0.697668 173.001 0.713624 3.86687 -180 7.0156e-015 178.98 178.253 9.39314 179.724 4.21872e-006 1.25001e-006 0.018549 -17.427 68.3453 19.7975 8.13658 25.2339 -3.48611 -172.109 0.22302 -2.7831 4.54188e-006 -4.6773e-006 -0.944974 -1.70072 -12.7798 0.347164 2.22653e-006 4.09114e-006 -0.195318 20.8086 72.246 -23.6497 -8.13664 25.2348 3.48486 
53.005 96.1103 10.2451 -1.10704 -3.10068 0.599453 0.450836 -1.21121 0.0619366 0.900187 1.58603 0.0777359 0.900037 3.23098 0.062771 -0.581569 13.1888 -8.68067 2.30685 -0.10496 -8.66796 60.1635 -10.3679 -6.4516 109.499 15.5378 21.7613 1.00957e-006 -2.46307e-007 -4.762e-006 6.4984 3.82134 -0.919965 -7.04043e-006 2.77283e-006 -3.00257 8.02933 -4.95146 0.697668 -62.0772 -6.34378 4.08778 -109.168 16.4964 -8.11282 -1.13028e-006 -2.59208e-007 5.97952e-006 -9.24942 0.0695594 0.98162 8.40987e-007 -4.49122e-007 3.02102 -8.02901 -4.95146 -0.697668 173.01 0.710518 3.8622 -180 7.0156e-015 178.98 178.254 9.39549 179.724 4.21872e-006 1.25001e-006 0.018549 -17.4283 68.3496 19.8001 8.13658 25.2339 -3.48611 -172.102 0.224498 -2.78704 4.54188e-006 -4.6773e-006 -0.944974 -1.69961 -12.7887 0.347151 2.22653e-006 4.09114e-006 -0.195234 20.8102 72.2502 -23.6552 -8.13664 25.2348 3.48486 
53.0034 96.1002 10.2375 -1.1115 -3.10305 0.600084 0.452192 -1.21281 0.0628686 0.90321 1.58364 0.0790356 0.903038 3.22859 0.0640105 -0.590895 13.1881 -8.68685 2.32302 -0.0982761 -8.67525 60.1472 -10.3755 -6.45624 109.515 15.533 21.7615 1.00957e-006 -2.46307e-007 -4.762e-006 6.49623 3.82679 -0.920979 -7.04043e-006 2.77283e-006 -3.00257 8.02933 -4.95146 0.697668 -62.0946 -6.33275 4.08215 -109.147 16.4975 -8.11941 -1.13028e-006 -2.59208e-007 5.97952e-006 -9.24828 0.0695596 0.98245 8.40987e-007 -4.49122e-007 3.02102 -8.02901 -4.95146 -0.697668 173.018 0.707396 3.85762 -180 7.0156e-015 178.98 178.255 9.3978 179.724 4.21872e-006 1.25001e-006 0.018549 -17.4296 68.3539 19.8027 8.13658 25.2339 -3.48611 -172.094 0.225915 -2.79093 4.54188e-006 -4.6773e-006 -0.944974 -1.69851 -12.7975 0.347139 2.22653e-006 4.09114e-006 -0.19516 20.8117 72.2544 -23.6606 -8.13664 25.2348 3.48486 
53.0016 96.1033 10.242 -1.11584 -3.10543 0.600693 0.453489 -1.21438 0.0637691 0.906107 1.58125 0.0802904 0.905914 3.22621 0.0652075 -0.600013 13.1873 -8.69298 2.33902 -0.0916676 -8.68245 60.1312 -10.3829 -6.46083 109.532 15.5286 21.7624 1.00957e-006 -2.46307e-007 -4.762e-006 6.49352 3.83216 -0.921929 -7.04043e-006 2.77283e-006 -3.00257 8.02933 -4.95146 0.697668 -62.1116 -6.32202 4.07668 -109.126 16.4986 -8.12589 -1.13028e-006 -2.59208e-007 5.97952e-006 -9.24713 0.0695598 0.98325 8.40987e-007 -4.49122e-007 3.02102 -8.02901 -4.95146 -0.697668 173.026 0.704248 3.8532 -180 7.0156e-015 178.98 178.256 9.40002 179.724 4.21872e-006 1.25001e-006 0.018549 -17.4309 68.358 19.8053 8.13658 25.2339 -3.48611 -172.087 0.227231 -2.79472 4.54188e-006 -4.6773e-006 -0.944974 -1.69742 -12.8062 0.347131 2.22653e-006 4.09114e-006 -0.195102 20.8134 72.2586 -23.666 -8.13664 25.2348 3.48486 
52.9959 96.1061 10.2508 -1.12002 -3.10781 0.60127 0.454706 -1.21593 0.0646261 0.908832 1.57888 0.0814834 0.908619 3.22383 0.066346 -0.608846 13.1863 -8.69906 2.3548 -0.0851627 -8.68955 60.1156 -10.3903 -6.46535 109.548 15.5246 21.7641 1.00957e-006 -2.46307e-007 -4.762e-006 6.49008 3.8374 -0.922792 -7.04043e-006 2.77283e-006 -3.00257 8.02933 -4.95146 0.697668 -62.1283 -6.3117 4.07142 -109.106 16.4999 -8.13223 -1.13028e-006 -2.59208e-007 5.97952e-006 -9.24598 0.0695601 0.984012 8.40987e-007 -4.49122e-007 3.02102 -8.02901 -4.95146 -0.697668 173.034 0.701065 3.84899 -180 7.0156e-015 178.98 178.257 9.40214 179.724 4.21872e-006 1.25001e-006 0.018549 -17.4321 68.362 19.8077 8.13658 25.2339 -3.48611 -172.08 0.228411 -2.7984 4.54188e-006 -4.6773e-006 -0.944974 -1.69633 -12.8146 0.347127 2.22653e-006 4.09114e-006 -0.195068 20.8152 72.2627 -23.6713 -8.13664 25.2348 3.48486 
